<svg id="fd976d61-6b68-4b14-bb1a-5677466e69c5" data-name="Layer 1" xmlns="http://www.w3.org/2000/svg" viewBox="0 0 226 45"><defs><style>.af418ff1-5c78-47f5-b24e-1fec2c0ae643{fill:#fff;}.efd2d170-2cad-4a78-b8b0-cd0240b1cf3d{fill:#871f41;}.af11fd33-e7ae-439b-a4d2-b5f17a2a755d{fill:#e77724;}</style></defs><rect class="af418ff1-5c78-47f5-b24e-1fec2c0ae643" width="226" height="45"/><path class="efd2d170-2cad-4a78-b8b0-cd0240b1cf3d" d="M51.03616,1.647A15.44173,15.44173,0,0,0,37.455,9.74063l-3.3221,6.14015-.38618.71385-.37416.69155v0L23.33791,35.83257,6.95743,5.21623h7.28534l5.86662,10.90735,3.0783,5.72325,3.178-5.66855,6.1458-10.96205H37.8239A17.73394,17.73394,0,0,1,42.25837,1.647H30.42075L23.25252,14.43275,16.37549,1.647H1L23.32031,43.36533,35.74487,20.4017l2.05986-3.80707.38618-.71385,2.38924-4.41569q.19527-.361.413-.70464a11.91922,11.91922,0,0,1,9.25634-5.51633q.40569-.02778.81628-.02789H83.59148l-3.28411,6.12089H65.25674l-1.0071,1.89225L50.32392,39.39423h-7.3845L55.15258,16.71182l2.83311-5.26148H43.32978c-.8365,1.323-2.03512,3.56926-2.03512,3.56926H52.01015L36.96406,42.96349H52.46744L67.40026,14.90638H82.44252L89.55691,1.647Z"/><path class="af11fd33-e7ae-439b-a4d2-b5f17a2a755d" d="M109.25874,14.55929s1.67115-3.83767,2.5036-5.74405,1.67115-3.82077,2.51606-5.7445a2.27648,2.27648,0,0,1,.88671-1.04146,2.42648,2.42648,0,0,1,1.32606-.38155h2.10872l-8.08623,18.53955h-3.079L99.34839,1.64773h2.09627a2.38351,2.38351,0,0,1,.69194.10362,2.47132,2.47132,0,0,1,.64035.29749,2.69291,2.69291,0,0,1,.531.4527,2.00566,2.00566,0,0,1,.362.5692l5.0072,11.47566.29344.67252Z"/><path class="af11fd33-e7ae-439b-a4d2-b5f17a2a755d" d="M124.849,20.18728h-3.40187V1.64773H124.849Z"/><path class="af11fd33-e7ae-439b-a4d2-b5f17a2a755d" d="M162.95217,10.264v7.77539a6.8281,6.8281,0,0,1-1.51372,1.15175,8.46007,8.46007,0,0,1-1.70761.71772,10.02511,10.02511,0,0,1-1.857.36243,19.34758,19.34758,0,0,1-1.94685.09694,9.18677,9.18677,0,0,1-3.68737-.744,9.71517,9.71517,0,0,1-3.0141-2.02467,9.46678,9.46678,0,0,1-2.03846-3.00121,9.20172,9.20172,0,0,1-.74352-3.68736,9.32492,9.32492,0,0,1,1.294-4.77419,9.63762,9.63762,0,0,1,1.48793-1.91438,9.37163,9.37163,0,0,1,1.92106-1.48171A9.58242,9.58242,0,0,1,153.41,1.79a9.35673,9.35673,0,0,1,2.51694-.33619,8.89846,8.89846,0,0,1,2.03134.23257,9.377,9.377,0,0,1,1.91483.67282,10.89647,10.89647,0,0,1,1.75919,1.061,11.4145,11.4145,0,0,1,1.56531,1.39721l-.77643.78932a2.26222,2.26222,0,0,1-1.74585.7373,2.25674,2.25674,0,0,1-1.31984-.414,6.34256,6.34256,0,0,0-1.59821-.78932,5.80028,5.80028,0,0,0-1.83034-.2846,5.89442,5.89442,0,0,0-2.35508.47893,6.15184,6.15184,0,0,0-3.25334,3.22133,5.76454,5.76454,0,0,0-.4856,2.35463,5.67441,5.67441,0,0,0,.50516,2.38709,6.22036,6.22036,0,0,0,3.34407,3.21466,6.17,6.17,0,0,0,2.37375.466,9.91949,9.91949,0,0,0,1.22912-.10362,9.28453,9.28453,0,0,0,1.1384-.24591,4.29333,4.29333,0,0,0,1.11262-.47849V13.5374q-.543-.01267-1.06726-.01957a2.20041,2.20041,0,0,1-.93118-.20056,1.44587,1.44587,0,0,1-.65369-.65324,2.97825,2.97825,0,0,1-.24547-1.36476V10.264Z"/><path class="af11fd33-e7ae-439b-a4d2-b5f17a2a755d" d="M171.83173,20.18728H168.429V1.64773h3.40276Z"/><path class="af11fd33-e7ae-439b-a4d2-b5f17a2a755d" d="M180.82068,6.31755V20.18728h-3.38942V1.64773h2.98831a3.04416,3.04416,0,0,1,1.09305.181,1.60522,1.60522,0,0,1,.74441.55631c1.294,1.83746,8.241,11.65854,8.241,11.65854V1.64773h3.38942V20.18728h-3.14306Z"/><path class="af11fd33-e7ae-439b-a4d2-b5f17a2a755d" d="M202.88884,20.18728H199.487V1.64773h3.40188Z"/><path class="af11fd33-e7ae-439b-a4d2-b5f17a2a755d" d="M216.9013,1.64773h-3.06658L205.736,20.18728h2.10871a2.36869,2.36869,0,0,0,.69194-.10361,2.6287,2.6287,0,0,0,.64124-.29083,2.51778,2.51778,0,0,0,.53007-.44647,1.98634,1.98634,0,0,0,.362-.5692l1.08682-2.50983h.00289l1.95975-4.51359h.01723L215.368,6.57467l2.71082,6.28991h-1.53951a2.893,2.893,0,0,0-2.65366,1.74085l-.72155,1.66191h6.41511l1.10016,2.50983a2.32026,2.32026,0,0,0,.892,1.03479,2.423,2.423,0,0,0,1.31983.37532H225Z"/><path class="af11fd33-e7ae-439b-a4d2-b5f17a2a755d" d="M133.83781,20.1867h-3.38932V1.64773h6.96006a5.75008,5.75008,0,0,1,2.4386.50471,5.89776,5.89776,0,0,1,1.86942,1.33892,6.10291,6.10291,0,0,1,1.2024,1.89521,5.84669,5.84669,0,0,1,.20811,3.77752,5.72088,5.72088,0,0,1-.64745,1.46209,6.14837,6.14837,0,0,1-1.04766,1.2611,6.07121,6.07121,0,0,1-1.423.97695q1.358,1.85029,2.70363,3.66768,1.34471,1.81761,2.71608,3.65479h-2.65205a2.10361,2.10361,0,0,1-.63321-.1165,3.25907,3.25907,0,0,1-.75684-.36864,5.48776,5.48776,0,0,1-.81554-.65323,6.30461,6.30461,0,0,1-.82176-.98317l-3.376-4.55393h-2.53554Zm3.67391-10.07812a2.20279,2.20279,0,0,0,.93737-.20678,2.50738,2.50738,0,0,0,.77729-.55629,2.68693,2.68693,0,0,0,.52294-.80886,2.4105,2.4105,0,0,0,.19477-.95072,2.44449,2.44449,0,0,0-.19477-.96405,2.69033,2.69033,0,0,0-.52294-.80843,2.50735,2.50735,0,0,0-.77729-.55628,2.20279,2.20279,0,0,0-.93737-.20678h-3.67391v5.05819Z"/><path class="af11fd33-e7ae-439b-a4d2-b5f17a2a755d" d="M101.81946,28.08608V24.81272h14.30921v3.27336h-5.44655V43.36516h-3.40277V28.08608Z"/><path class="af11fd33-e7ae-439b-a4d2-b5f17a2a755d" d="M130.87843,43.36516H118.97587V24.82562h11.90256v3.24712h-8.51314v4.32149h6.9087v3.24712h-6.9087V40.118h8.51314Z"/><path class="af11fd33-e7ae-439b-a4d2-b5f17a2a755d" d="M136.50855,34.08894a5.82178,5.82178,0,0,0,.48471,2.36086,6.12478,6.12478,0,0,0,1.31984,1.92773,6.31035,6.31035,0,0,0,1.94062,1.30027,5.87779,5.87779,0,0,0,2.36131.47893,5.66653,5.66653,0,0,0,1.83034-.29127,6.51486,6.51486,0,0,0,1.59821-.79555,2.564,2.564,0,0,1,.61456-.2846,2.29638,2.29638,0,0,1,.69194-.10362,2.36139,2.36139,0,0,1,.98988.18766,2.75205,2.75205,0,0,1,.75686.52385l.78888.78932a11.41509,11.41509,0,0,1-1.56531,1.39721,10.702,10.702,0,0,1-1.76631,1.061,9.52926,9.52926,0,0,1-1.91483.67282,8.8087,8.8087,0,0,1-2.02422.23257,9.229,9.229,0,0,1-3.69359-.744,9.7055,9.7055,0,0,1-3.02122-2.02467,9.44966,9.44966,0,0,1-2.03757-3.0012,9.18727,9.18727,0,0,1-.74441-3.68737,9.34787,9.34787,0,0,1,1.294-4.77418,9.67084,9.67084,0,0,1,1.48794-1.91439,9.41994,9.41994,0,0,1,1.92105-1.48171,9.55715,9.55715,0,0,1,2.27059-.95074,9.42651,9.42651,0,0,1,2.52317-.33619,8.8087,8.8087,0,0,1,2.02422.23257,9.52926,9.52926,0,0,1,1.91483.67282,10.73242,10.73242,0,0,1,1.76631,1.061,11.41509,11.41509,0,0,1,1.56531,1.39721l-.78888.78933a2.6754,2.6754,0,0,1-.7702.53674,2.29726,2.29726,0,0,1-.97654.20055,2.23608,2.23608,0,0,1-1.3065-.414,6.59063,6.59063,0,0,0-1.61066-.78932,5.76281,5.76281,0,0,0-1.81789-.2846,5.87763,5.87763,0,0,0-2.36131.47893,6.31655,6.31655,0,0,0-1.94062,1.29983,6.15823,6.15823,0,0,0-1.31984,1.9215A5.77864,5.77864,0,0,0,136.50855,34.08894Z"/><path class="af11fd33-e7ae-439b-a4d2-b5f17a2a755d" d="M169.519,43.36516h-3.40187V35.68H157.009v7.68512h-3.39031V24.82562H157.009v7.6073h9.10813v-7.6073H169.519Z"/><path class="af11fd33-e7ae-439b-a4d2-b5f17a2a755d" d="M173.32953,40.40119a1.57248,1.57248,0,1,1-1.57248,1.57248A1.57524,1.57524,0,0,1,173.32953,40.40119Zm0,3.0021a1.42742,1.42742,0,1,0-1.42962-1.42962A1.42833,1.42833,0,0,0,173.32953,43.40329Zm.22963-1.28235.4201.59788c.01729.039,0,.04762-.04338.04762h-.14709a.07463.07463,0,0,1-.06949-.03457l-.41129-.58924h-.29911v.58924c0,.02592-.01306.03457-.04339.03457h-.15132c-.03492,0-.04339-.00865-.04339-.03457v-1.512c0-.03033.013-.039.04339-.039h.54567c.2642,0,.55027.10406.55027.47655A.45449.45449,0,0,1,173.55916,42.12094Zm-.20353-.1776c.21658,0,.32487-.09965.32487-.28589,0-.1993-.12134-.27284-.33369-.27284h-.33791v.55873Z"/></svg>